<svg width="16" height="20" viewBox="0 0 16 20" fill="none" xmlns="http://www.w3.org/2000/svg">
<path d="M15.9987 8.65243C16.0063 7.8816 15.9724 7.10972 15.9297 6.34202C15.8181 4.33264 14.0089 2.6816 11.9875 2.46285C11.565 2.00868 11.1272 1.7566 10.511 1.61181C10.1838 0.768057 9.31039 -0.00694289 8.31333 0.00764044C8.0813 -0.0163179 7.81316 0.0253488 7.57566 0.00764044C6.61362 0.0732655 5.74462 0.762849 5.46443 1.6191C4.84387 1.74514 4.40608 2.01493 3.98581 2.46181C1.4948 2.75452 -0.302308 4.92535 0.0709047 7.37222C0.0172759 10.066 -0.00461343 12.7587 0.00523676 15.4504C-0.110777 17.7493 1.7137 19.9441 4.19485 19.9733C6.15942 19.9962 8.13384 20.0024 10.0984 20.0004C10.6686 20.0004 11.241 19.9879 11.8101 19.9712C14.044 19.9076 15.7469 18.1545 15.9341 16.0795C15.8947 13.6045 15.9166 11.1285 15.9987 8.65243ZM5.73039 3.33681C6.11892 3.25868 6.30061 3.31285 6.65302 3.04618C7.14772 2.67327 7.03609 2.22639 7.34473 1.9316C7.68073 1.61077 8.21045 1.59097 8.57272 1.88472C8.92185 2.16702 8.81897 2.66806 9.31695 3.04618C9.6836 3.32431 9.83901 3.25556 10.2396 3.33681C10.7595 3.44202 10.7463 4.12327 10.0951 4.17847C8.75111 4.29097 7.23528 4.08993 5.87267 4.17847C5.29479 4.19827 5.16127 3.45139 5.7282 3.33681H5.73039ZM2.74687 9.45868C2.81473 8.8316 3.48454 8.65972 4.05367 8.73368C3.91905 8.04514 4.36231 7.29931 5.18206 7.52431C5.76213 7.68368 5.85735 8.23368 5.81466 8.73368C6.29951 8.68889 6.85769 8.76389 7.0525 9.25035C7.35895 10.0181 6.55452 10.5379 5.81466 10.4076C6.03465 12.0399 3.80741 12.0608 4.05367 10.4076C3.38166 10.4962 2.66807 10.1931 2.74687 9.45764V9.45868ZM8.043 16.6378C6.90913 16.5493 5.51697 16.7764 4.41265 16.6316C3.40465 16.5004 3.33679 15.192 4.32947 14.9753H8.1601C9.13089 15.2118 9.06523 16.5201 8.0419 16.6368L8.043 16.6378ZM11.4873 14.1483L4.44658 14.1441C3.41888 14.0128 3.30834 12.7295 4.32947 12.4826L11.6077 12.4764C12.6682 12.691 12.5752 14.0451 11.4884 14.1472L11.4873 14.1483Z" fill="#C0C0C0"/>
</svg>
