<svg width="20" height="20" viewBox="0 0 20 20" fill="none" xmlns="http://www.w3.org/2000/svg">
<path d="M0.00318153 13.6879C0.00318153 12.1676 0.00947777 10.6462 3.3412e-05 9.12593C-0.00311471 8.54559 0.216204 8.08889 0.656941 7.70064C3.37797 5.30166 6.09164 2.89553 8.80847 0.493487C9.55143 -0.163474 10.4476 -0.165517 11.1937 0.493487C13.9252 2.90575 16.6525 5.32209 19.3841 7.73435C19.8017 8.10319 20.0011 8.55172 20 9.1014C19.9948 12.1512 19.999 15.201 19.9969 18.2508C19.9969 19.3175 19.3022 19.9969 18.213 19.998C16.6252 19.999 15.0365 19.998 13.4488 19.998C12.8265 19.998 12.5002 19.6812 12.4991 19.0784C12.4991 17.5326 12.4991 15.9857 12.4991 14.4398C12.4991 13.8207 12.1759 13.5101 11.5347 13.5091C10.5022 13.5091 9.46958 13.508 8.43699 13.5091C7.8315 13.5091 7.502 13.8289 7.50095 14.4163C7.4999 15.9622 7.50095 17.508 7.50095 19.0549C7.50095 19.6904 7.18194 19.998 6.52294 19.998C4.95202 19.998 3.38216 19.998 1.81125 19.998C0.697867 19.998 0.0042309 19.3277 0.0042309 18.2488C0.00318153 16.7285 0.0042309 15.2072 0.0042309 13.6868L0.00318153 13.6879Z" fill="#024AC5"/>
</svg>
