<?xml version="1.0" encoding="UTF-8"?>
<svg version="1.1" xmlns="http://www.w3.org/2000/svg" width="64" height="64">
<path d="M0 0 C3.27676912 2.08250247 5.25409989 4.49316776 6.71484375 8.08984375 C7.46538191 13.0791355 7.43664877 17.4400037 5.40234375 22.08984375 C3.91165052 23.85659128 2.35904694 25.46866862 0.71484375 27.08984375 C1.58496094 27.40115234 1.58496094 27.40115234 2.47265625 27.71875 C8.12166939 29.94666112 13.1352561 32.31789283 15.71484375 38.08984375 C16.19099921 42.47252192 16.07118194 46.70160487 15.71484375 51.08984375 C13.40484375 51.08984375 11.09484375 51.08984375 8.71484375 51.08984375 C8.65167969 50.49816406 8.58851562 49.90648437 8.5234375 49.296875 C7.88865821 45.20087808 7.21327398 41.85383569 4.02734375 39.02734375 C-1.5858742 35.61678095 -9.01646352 36.10930389 -15.28515625 37.08984375 C-19.71566078 39.34809946 -19.71566078 39.34809946 -22.2734375 43.4140625 C-22.38042969 44.19394531 -22.48742188 44.97382812 -22.59765625 45.77734375 C-23.24847671 50.05316421 -23.24847671 50.05316421 -24.28515625 51.08984375 C-25.80443663 51.16164339 -27.32683107 51.17376382 -28.84765625 51.15234375 C-29.67394531 51.14332031 -30.50023437 51.13429687 -31.3515625 51.125 C-31.98964844 51.11339844 -32.62773438 51.10179687 -33.28515625 51.08984375 C-33.65887249 43.98923514 -32.71550098 39.16351503 -28.16015625 33.40234375 C-24.49362229 30.45317513 -20.64479979 28.79000975 -16.28515625 27.08984375 C-17.06890625 26.18234375 -17.85265625 25.27484375 -18.66015625 24.33984375 C-21.56622626 20.80810428 -23.09975686 18.46709636 -23.72265625 13.83984375 C-23.15004288 8.93172915 -21.59088762 5.75316625 -18.28515625 2.08984375 C-12.24600438 -2.25688451 -6.89010154 -3.27166747 0 0 Z M-12.09765625 9.21484375 C-13.85518039 11.98988186 -13.75338371 13.8791412 -13.28515625 17.08984375 C-11.70819993 19.16840455 -11.70819993 19.16840455 -9.28515625 20.08984375 C-6.07223926 20.01147992 -4.73537232 19.49649053 -2.34765625 17.33984375 C-0.98696963 15.08206969 -0.98696963 15.08206969 -1.97265625 12.46484375 C-3.19337471 9.9970443 -3.19337471 9.9970443 -5.28515625 8.08984375 C-8.09499873 7.72960753 -9.66757544 7.70651773 -12.09765625 9.21484375 Z " fill="#BDBEC8" transform="translate(41.28515625,7.91015625)"/>
</svg>
