<?xml version="1.0" encoding="UTF-8"?>
<svg version="1.1" xmlns="http://www.w3.org/2000/svg" width="64" height="64">
<path d="M0 0 C3.45394033 2.60796026 6.31582592 5.70512997 9.25 8.875 C10.83671935 10.54080021 12.42518546 12.20493881 14.015625 13.8671875 C14.70946289 14.61081543 15.40330078 15.35444336 16.11816406 16.12060547 C18.05637495 18.17876301 18.05637495 18.17876301 21 20 C21 20.66 21 21.32 21 22 C22.32 22.66 23.64 23.32 25 24 C25 25.98 25 27.96 25 30 C23.35 30.33 21.7 30.66 20 31 C20.01571045 31.59014893 20.0314209 32.18029785 20.04760742 32.78833008 C20.10997939 35.46295586 20.14899657 38.13742864 20.1875 40.8125 C20.21263672 41.74126953 20.23777344 42.67003906 20.26367188 43.62695312 C20.27333984 44.51962891 20.28300781 45.41230469 20.29296875 46.33203125 C20.3086792 47.15421143 20.32438965 47.9763916 20.34057617 48.82348633 C19.91073237 51.57048094 19.15012334 52.2825781 17 54 C15.06494141 54.38095093 15.06494141 54.38095093 12.8515625 54.38818359 C11.60511963 54.40236832 11.60511963 54.40236832 10.33349609 54.4168396 C9.43969238 54.41076691 8.54588867 54.40469421 7.625 54.3984375 C6.24368896 54.40274277 6.24368896 54.40274277 4.83447266 54.40713501 C2.88768906 54.40917631 0.94088498 54.40364183 -1.00585938 54.39111328 C-3.98874699 54.37506056 -6.97027961 54.39095972 -9.953125 54.41015625 C-11.843753 54.40817383 -13.73438015 54.40433018 -15.625 54.3984375 C-16.51880371 54.40451019 -17.41260742 54.41058289 -18.33349609 54.4168396 C-19.57993896 54.40265488 -19.57993896 54.40265488 -20.8515625 54.38818359 C-21.58197754 54.38579681 -22.31239258 54.38341003 -23.06494141 54.38095093 C-25.55558928 53.8906223 -26.45282871 52.97596523 -28 51 C-28.34057617 48.82348633 -28.34057617 48.82348633 -28.29296875 46.33203125 C-28.28330078 45.43935547 -28.27363281 44.54667969 -28.26367188 43.62695312 C-28.23853516 42.69818359 -28.21339844 41.76941406 -28.1875 40.8125 C-28.17396484 39.87212891 -28.16042969 38.93175781 -28.14648438 37.96289062 C-28.11113096 35.64134962 -28.06178674 33.32096347 -28 31 C-29.65 30.67 -31.3 30.34 -33 30 C-33.359375 27.3515625 -33.359375 27.3515625 -33 24 C-31.11380471 21.83502742 -29.43479927 20.1736487 -27.25 18.375 C-26.1713018 17.44597763 -25.09316582 16.51630202 -24.015625 15.5859375 C-22.52289062 14.30589844 -22.52289062 14.30589844 -21 13 C-20.25234375 12.22914062 -19.5046875 11.45828125 -18.734375 10.6640625 C-17 9 -17 9 -15 9 C-14.690625 8.1646875 -14.690625 8.1646875 -14.375 7.3125 C-10.81597256 1.32686294 -6.93805868 -1.24619016 0 0 Z M-14.09033203 16.30517578 C-18.88328062 21.40969744 -19.85781625 25.64092955 -19.97998047 32.56835938 C-19.82655508 37.40090217 -19.53892447 42.19468887 -19 47 C-17.02 47 -15.04 47 -13 47 C-12.96261719 46.01257812 -12.92523437 45.02515625 -12.88671875 44.0078125 C-12.82097656 42.72648437 -12.75523438 41.44515625 -12.6875 40.125 C-12.62949219 38.84882812 -12.57148438 37.57265625 -12.51171875 36.2578125 C-12.34285156 35.18273437 -12.17398437 34.10765625 -12 33 C-8.65418921 30.76945947 -7.35990189 30.70316872 -3.4375 30.6875 C-2.46683594 30.67074219 -1.49617188 30.65398438 -0.49609375 30.63671875 C0.32761719 30.75660156 1.15132812 30.87648438 2 31 C4.34770643 34.52155964 4.37669614 36.50771843 4.625 40.6875 C4.69976562 41.86699219 4.77453125 43.04648437 4.8515625 44.26171875 C4.90054688 45.16535156 4.94953125 46.06898437 5 47 C6.98 47 8.96 47 11 47 C11.14553599 43.10456123 11.23415059 39.20982349 11.3125 35.3125 C11.35439453 34.20970703 11.39628906 33.10691406 11.43945312 31.97070312 C11.65244161 25.55036244 11.65244161 25.55036244 8.7734375 20.03125 C7.85820313 19.3609375 6.94296875 18.690625 6 18 C5.21238281 17.18917969 4.42476562 16.37835937 3.61328125 15.54296875 C2.47439453 14.37701172 2.47439453 14.37701172 1.3125 13.1875 C0.54550781 12.39730469 -0.22148438 11.60710938 -1.01171875 10.79296875 C-5.76741675 6.50443165 -10.40226782 12.91765444 -14.09033203 16.30517578 Z M-6 36 C-7.25949049 37.03406673 -7.25949049 37.03406673 -7.09765625 39.28515625 C-7.08605469 40.20167969 -7.07445313 41.11820313 -7.0625 42.0625 C-7.05347656 42.98160156 -7.04445313 43.90070312 -7.03515625 44.84765625 C-7.02355469 45.55792969 -7.01195313 46.26820312 -7 47 C-5.02 47 -3.04 47 -1 47 C-1 43.7 -1 40.4 -1 37 C-2.65614657 36.61781233 -4.32457024 36.28604898 -6 36 Z " fill="#BDBEC8" transform="translate(36,5)"/>
</svg>
