<?xml version="1.0" encoding="UTF-8"?>
<svg version="1.1" xmlns="http://www.w3.org/2000/svg" width="64" height="64">
<path d="M0 0 C8.91 0 17.82 0 27 0 C27 0.66 27 1.32 27 2 C27.92232422 1.91298828 27.92232422 1.91298828 28.86328125 1.82421875 C29.67152344 1.77910156 30.47976562 1.73398438 31.3125 1.6875 C32.11300781 1.62949219 32.91351563 1.57148437 33.73828125 1.51171875 C36 2 36 2 37.62084961 3.91870117 C39.56099989 8.25338638 39.39216489 12.09320424 39.328125 16.7890625 C39.32625183 17.72930267 39.32437866 18.66954285 39.32244873 19.63827515 C39.31574166 21.62021445 39.30185396 23.60214082 39.28125 25.58398438 C39.25003886 28.62121859 39.24027091 31.65793363 39.234375 34.6953125 C39.22520668 36.62240218 39.21483145 38.54948657 39.203125 40.4765625 C39.19887512 41.38596588 39.19462524 42.29536926 39.19024658 43.23233032 C39.18063904 44.0768576 39.17103149 44.92138489 39.16113281 45.79150391 C39.15430481 46.53365143 39.14747681 47.27579895 39.14044189 48.04043579 C39 50 39 50 38 53 C35.66361989 54.16819006 34.2766112 54.13268832 31.67382812 54.14526367 C30.77950073 54.15164352 29.88517334 54.15802338 28.96374512 54.16459656 C27.99602173 54.16570938 27.02829834 54.1668222 26.03125 54.16796875 C25.04000122 54.17129715 24.04875244 54.17462555 23.02746582 54.17805481 C20.92928533 54.18312293 18.83109676 54.18546317 16.73291016 54.18530273 C13.51321232 54.18749102 10.293856 54.20565295 7.07421875 54.22460938 C5.03906368 54.22754288 3.00390697 54.22952796 0.96875 54.23046875 C-0.48283508 54.24124702 -0.48283508 54.24124702 -1.96374512 54.25224304 C-2.85807251 54.24916641 -3.7523999 54.24608978 -4.67382812 54.24291992 C-5.46277466 54.24434494 -6.25172119 54.24576996 -7.0645752 54.24723816 C-9 54 -9 54 -11 52 C-11.26069641 49.99537659 -11.26069641 49.99537659 -11.2746582 47.50610352 C-11.28419022 46.57496231 -11.29372223 45.64382111 -11.30354309 44.6844635 C-11.30263168 43.67612961 -11.30172028 42.66779572 -11.30078125 41.62890625 C-11.30506638 40.59563705 -11.3093515 39.56236786 -11.31376648 38.49778748 C-11.31951683 36.30964898 -11.32000488 34.12149137 -11.31567383 31.93334961 C-11.31251609 28.57958441 -11.3359571 25.22670276 -11.36132812 21.87304688 C-11.3636012 19.75000112 -11.36430457 17.62695298 -11.36328125 15.50390625 C-11.372491 14.49759659 -11.38170074 13.49128693 -11.39118958 12.45448303 C-11.38496078 11.52018967 -11.37873199 10.5858963 -11.37231445 9.62329102 C-11.37294388 8.80103531 -11.3735733 7.9787796 -11.3742218 7.13160706 C-10.91171842 4.49713875 -10.0997176 3.6088709 -8 2 C-5.27492202 1.60921444 -2.76878044 1.86383047 0 2 C0 1.34 0 0.68 0 0 Z M-4 9 C-4 21.54 -4 34.08 -4 47 C7.22 47 18.44 47 30 47 C30 34.46 30 21.92 30 9 C29.34 9 28.68 9 28 9 C28 10.98 28 12.96 28 15 C18.43 15 8.86 15 -1 15 C-1 13.35 -1 11.7 -1 10 C-1.99 9.67 -2.98 9.34 -4 9 Z " fill="#BEBEC9" transform="translate(18,5)"/>
<path d="M0 0 C1.02802734 -0.01224609 2.05605469 -0.02449219 3.11523438 -0.03710938 C4.58766602 -0.04000977 4.58766602 -0.04000977 6.08984375 -0.04296875 C6.99468506 -0.04707764 7.89952637 -0.05118652 8.83178711 -0.05541992 C11.0625 0.1875 11.0625 0.1875 13.0625 2.1875 C12.50694444 6.74305556 12.50694444 6.74305556 11.0625 8.1875 C7.42350825 8.43906269 3.77166327 8.37272226 0.125 8.375 C-0.90302734 8.38724609 -1.93105469 8.39949219 -2.99023438 8.41210938 C-4.46266602 8.41500977 -4.46266602 8.41500977 -5.96484375 8.41796875 C-7.32210571 8.42413208 -7.32210571 8.42413208 -8.70678711 8.43041992 C-10.9375 8.1875 -10.9375 8.1875 -12.9375 6.1875 C-11.94416387 -1.95785623 -7.05804501 0.00440852 0 0 Z " fill="#BDBEC9" transform="translate(31.9375,39.8125)"/>
<path d="M0 0 C2.64 0 5.28 0 8 0 C8 1.32 8 2.64 8 4 C9.32 4 10.64 4 12 4 C12 6.31 12 8.62 12 11 C10.68 11 9.36 11 8 11 C8 12.32 8 13.64 8 15 C5.36 15 2.72 15 0 15 C0 13.68 0 12.36 0 11 C-1.32 11 -2.64 11 -4 11 C-4 8.69 -4 6.38 -4 4 C-2.68 4 -1.36 4 0 4 C0 2.68 0 1.36 0 0 Z " fill="#BFC0CA" transform="translate(28,23)"/>
</svg>
