<?xml version="1.0" encoding="UTF-8"?>
<svg version="1.1" xmlns="http://www.w3.org/2000/svg" width="64" height="64">
<path d="M0 0 C2.31 0 4.62 0 7 0 C7 1.65 7 3.3 7 5 C11.62 5 16.24 5 21 5 C21 3.35 21 1.7 21 0 C23.31 0 25.62 0 28 0 C28 1.65 28 3.3 28 5 C29.98567708 4.93489583 31.97135417 4.86979167 33.95703125 4.8046875 C36 5 36 5 39 7 C39.3742218 8.9354248 39.3742218 8.9354248 39.37231445 11.32617188 C39.38165764 12.66766296 39.38165764 12.66766296 39.39118958 14.03625488 C39.38197983 15.00397827 39.37277008 15.97170166 39.36328125 16.96875 C39.36402901 18.45562317 39.36402901 18.45562317 39.36479187 19.97253418 C39.36244874 22.07073977 39.35270623 24.16894802 39.33618164 26.26708984 C39.3125959 29.48690812 39.31561806 32.70589862 39.32226562 35.92578125 C39.31668894 37.96094246 39.30957911 39.99610017 39.30078125 42.03125 C39.30214836 43.48283508 39.30214836 43.48283508 39.30354309 44.96374512 C39.29401108 45.85807251 39.28447906 46.7523999 39.2746582 47.67382812 C39.27005081 48.46277466 39.26544342 49.25172119 39.26069641 50.0645752 C39 52 39 52 37 54 C35.02661133 54.25396729 35.02661133 54.25396729 32.58203125 54.25878906 C31.21050903 54.26824554 31.21050903 54.26824554 29.8112793 54.27789307 C28.82168213 54.2738446 27.83208496 54.26979614 26.8125 54.265625 C25.79905518 54.26753845 24.78561035 54.2694519 23.74145508 54.27142334 C21.59618888 54.27278591 19.45091447 54.26908447 17.30566406 54.26074219 C14.01348428 54.25004382 10.72185022 54.26063519 7.4296875 54.2734375 C5.34895712 54.27211592 3.26822709 54.26955355 1.1875 54.265625 C0.19790283 54.26967346 -0.79169434 54.27372192 -1.8112793 54.27789307 C-2.72562744 54.27158875 -3.63997559 54.26528442 -4.58203125 54.25878906 C-5.38874268 54.25719788 -6.1954541 54.25560669 -7.02661133 54.25396729 C-9 54 -9 54 -11 52 C-11.26069641 50.0645752 -11.26069641 50.0645752 -11.2746582 47.67382812 C-11.28419022 46.77950073 -11.29372223 45.88517334 -11.30354309 44.96374512 C-11.30263168 43.99602173 -11.30172028 43.02829834 -11.30078125 42.03125 C-11.30506638 41.04000122 -11.3093515 40.04875244 -11.31376648 39.02746582 C-11.31951584 36.92928838 -11.3200056 34.831091 -11.31567383 32.73291016 C-11.31251277 29.5130027 -11.3359696 26.29401257 -11.36132812 23.07421875 C-11.36360084 21.03906366 -11.36430474 19.0039061 -11.36328125 16.96875 C-11.372491 16.00102661 -11.38170074 15.03330322 -11.39118958 14.03625488 C-11.38184639 12.69476379 -11.38184639 12.69476379 -11.37231445 11.32617188 C-11.37294388 10.53722534 -11.3735733 9.74827881 -11.3742218 8.9354248 C-11.25072861 8.29673462 -11.12723541 7.65804443 -11 7 C-7.91111478 4.94074319 -7.29064073 4.7609626 -3.8125 4.875 C-1.9253125 4.936875 -1.9253125 4.936875 0 5 C0 3.35 0 1.7 0 0 Z M-4 17 C-4 26.9 -4 36.8 -4 47 C7.88 47 19.76 47 32 47 C32 37.1 32 27.2 32 17 C20.12 17 8.24 17 -4 17 Z " fill="#BEBFC9" transform="translate(18,5)"/>
<path d="M0 0 C2.31 0 4.62 0 7 0 C7 1.32 7 2.64 7 4 C8.32 4 9.64 4 11 4 C11 6.31 11 8.62 11 11 C9.68 11 8.36 11 7 11 C7 12.32 7 13.64 7 15 C4.69 15 2.38 15 0 15 C0 13.68 0 12.36 0 11 C-1.32 11 -2.64 11 -4 11 C-4 8.69 -4 6.38 -4 4 C-2.68 4 -1.36 4 0 4 C0 2.68 0 1.36 0 0 Z " fill="#BFC0CA" transform="translate(22,30)"/>
<path d="M0 0 C2.31 0 4.62 0 7 0 C7 2.64 7 5.28 7 8 C4.69 8 2.38 8 0 8 C0 5.36 0 2.72 0 0 Z " fill="#BCBDC7" transform="translate(39,28)"/>
<path d="M0 0 C2.31 0 4.62 0 7 0 C7 2.31 7 4.62 7 7 C4.69 7 2.38 7 0 7 C0 4.69 0 2.38 0 0 Z " fill="#C0C1CB" transform="translate(39,39)"/>
<path d="M0 0 C1.65 0 3.3 0 5 0 C5 1.32 5 2.64 5 4 C3.35 4 1.7 4 0 4 C0 2.68 0 1.36 0 0 Z " fill="#C5C6D0" transform="translate(40,30)"/>
</svg>
