<svg width="103" height="16" viewBox="0 0 103 16" fill="none" xmlns="http://www.w3.org/2000/svg">
<g clip-path="url(#clip0_10163_3806)">
<path d="M17.9587 4.85321C17.8831 4.59038 17.7078 4.37253 17.4639 4.24042L10.3632 0.350042C9.50908 -0.117983 8.48959 -0.117983 7.63693 0.350042L0.534746 4.24042C0.29235 4.37253 0.11697 4.59038 0.0413997 4.85321C-0.0341707 5.11603 -0.00280185 5.39291 0.132654 5.63184C0.266685 5.87077 0.487692 6.04365 0.754327 6.11954C1.02096 6.19403 1.30186 6.16311 1.54425 6.02959L1.77096 5.90591V13.2341C1.77096 14.7604 3.02999 16.0015 4.57847 16.0015H13.4245C14.973 16.0015 16.232 14.7604 16.232 13.2341V5.90591L16.4587 6.02959C16.7011 6.16311 16.982 6.19403 17.2486 6.11954C17.5153 6.04505 17.7363 5.87218 17.8703 5.63325C18.0058 5.39432 18.0371 5.11744 17.9616 4.85461L17.9587 4.85321ZM14.1702 4.7759C14.1602 4.83493 14.1545 4.89537 14.1545 4.95581V13.2313C14.1545 13.629 13.8266 13.9523 13.4231 13.9523H4.57705C4.17353 13.9523 3.84558 13.629 3.84558 13.2313V4.76607L8.64501 2.13922C8.86745 2.01694 9.13266 2.01694 9.35509 2.13922L14.1702 4.7759ZM12.0457 8.21933V9.46178C12.0457 9.7246 11.8289 9.93824 11.5623 9.93824H10.1136V11.3662C10.1136 11.629 9.89691 11.8427 9.63028 11.8427H8.36982C8.10319 11.8427 7.88646 11.629 7.88646 11.3662V9.93824H6.43779C6.17115 9.93824 5.95442 9.7246 5.95442 9.46178V8.21933C5.95442 7.95651 6.17115 7.74288 6.43779 7.74288H7.88646V6.31491C7.88646 6.05208 8.10319 5.83845 8.36982 5.83845H9.63028C9.89691 5.83845 10.1136 6.05208 10.1136 6.31491V7.74288H11.5623C11.8289 7.74288 12.0457 7.95651 12.0457 8.21933Z" fill="#0F01B8"/>
</g>
<path d="M46.3022 8.69424C46.5865 9.33425 46.7287 10.0238 46.7287 10.7451V16.0031H43.9398V15.3383C43.5898 15.5292 43.2179 15.6813 42.8315 15.7909C42.3466 15.9288 41.8325 16.0031 41.3076 16.0031C40.5638 16.0031 39.8529 15.8652 39.1931 15.5894C38.5332 15.3136 37.9535 14.9387 37.465 14.4685C36.9765 13.9982 36.5828 13.436 36.2984 12.796C36.014 12.1559 35.8718 11.4664 35.8718 10.7486C35.8718 10.0308 36.0177 9.33779 36.2984 8.69778C36.5828 8.05777 36.9728 7.49555 37.4614 7.0182C37.9499 6.54438 38.5332 6.1625 39.1931 5.89023C40.5128 5.33862 42.0987 5.33862 43.4184 5.89023C44.0783 6.16603 44.658 6.54438 45.1428 7.02173C45.6277 7.49555 46.0142 8.05777 46.2985 8.69778L46.3022 8.69424ZM43.7356 9.74088C43.6007 9.42972 43.4075 9.15392 43.1705 8.92408C42.9299 8.69424 42.6492 8.50684 42.3357 8.37601C42.0221 8.24518 41.6758 8.17799 41.3112 8.17799C40.9466 8.17799 40.6003 8.24518 40.2868 8.37601C39.9696 8.51037 39.6889 8.69424 39.4519 8.92408C39.2113 9.15745 39.0217 9.43326 38.8868 9.74088C38.7519 10.0485 38.6827 10.3844 38.6827 10.7416C38.6827 11.0987 38.7519 11.4205 38.8868 11.7281C39.0217 12.0357 39.2149 12.3115 39.4519 12.5449C39.6889 12.7783 39.9696 12.9621 40.2868 13.093C40.9065 13.3546 41.6831 13.3617 42.3284 13.093C42.6492 12.9586 42.9335 12.7747 43.1705 12.5449C43.4111 12.3115 43.6007 12.0393 43.7356 11.7352C43.8705 11.4311 43.9398 11.0987 43.9398 10.7416C43.9398 10.3844 43.8705 10.0485 43.7356 9.74088ZM55.0518 1H57.8408V10.7557C57.8408 11.477 57.6986 12.163 57.4142 12.7995C57.1335 13.4324 56.7434 13.9911 56.2585 14.4649C55.7737 14.9352 55.194 15.3136 54.5341 15.5858C53.8743 15.8616 53.1633 15.9995 52.4196 15.9995C51.6759 15.9995 50.9686 15.8616 50.3124 15.5858C49.6562 15.31 49.0802 14.9352 48.5989 14.4649C48.1141 13.9946 47.724 13.436 47.4433 12.7995C47.1589 12.163 47.0167 11.477 47.0167 10.7557C47.0167 10.0344 47.1589 9.34839 47.4433 8.70485C47.724 8.06838 48.1141 7.50616 48.5989 7.03234C49.0802 6.56206 49.6598 6.18725 50.3124 5.91144C50.9686 5.63564 51.6759 5.49774 52.4196 5.49774C52.9555 5.49774 53.4732 5.56846 53.9508 5.70989C54.3336 5.82304 54.7018 5.97509 55.0518 6.1625V1ZM53.4441 8.40429C53.1305 8.27346 52.7842 8.20628 52.4196 8.20628C52.0551 8.20628 51.7197 8.27346 51.4025 8.40429C51.0853 8.53512 50.8046 8.71899 50.5676 8.95237C50.3343 9.18574 50.1447 9.45801 50.0062 9.76564C49.8713 10.0697 49.802 10.4056 49.802 10.7592C49.802 11.1128 49.8713 11.4381 50.0062 11.7458C50.1411 12.0569 50.3306 12.3292 50.564 12.5555C50.7973 12.7818 51.078 12.9657 51.3988 13.0965C52.0441 13.3652 52.8243 13.3582 53.4404 13.0965C53.7576 12.9657 54.0383 12.7818 54.2753 12.552C54.5122 12.3257 54.7018 12.0534 54.8404 11.7422C54.9753 11.4346 55.0445 11.1022 55.0445 10.7557C55.0445 10.4092 54.9753 10.0662 54.8404 9.7621C54.7018 9.45447 54.5122 9.1822 54.2753 8.95237C54.0347 8.71899 53.7539 8.53512 53.4404 8.40429H53.4441ZM68.5554 8.69424C68.8398 9.33425 68.982 10.0238 68.982 10.7451V16.0031H66.193V15.3383C65.8431 15.5292 65.4712 15.6813 65.0847 15.7909C64.5999 15.9288 64.0858 16.0031 63.5608 16.0031C62.8208 16.0031 62.1099 15.8652 61.4464 15.5894C60.7865 15.3136 60.2032 14.9352 59.7146 14.4685C59.2261 13.9982 58.8324 13.436 58.5517 12.796C58.2673 12.1559 58.1251 11.4664 58.1251 10.7486C58.1251 10.0308 58.2673 9.33779 58.5517 8.69778C58.836 8.05777 59.2261 7.49555 59.7146 7.0182C60.2032 6.54438 60.7865 6.1625 61.4464 5.89023C62.7661 5.33862 64.352 5.33862 65.6717 5.89023C66.3316 6.16603 66.9112 6.54438 67.3961 7.02173C67.881 7.49555 68.2674 8.05777 68.5518 8.69778L68.5554 8.69424ZM65.9889 9.74088C65.854 9.42972 65.6608 9.15392 65.4238 8.92408C65.1832 8.69424 64.9025 8.50684 64.5889 8.37601C64.2754 8.24518 63.9291 8.17799 63.5645 8.17799C63.1999 8.17799 62.8536 8.24518 62.5401 8.37601C62.2265 8.50684 61.9422 8.69424 61.7052 8.92408C61.4646 9.15392 61.275 9.42972 61.1401 9.74088C61.0052 10.0485 60.936 10.388 60.936 10.7416C60.936 11.0952 61.0052 11.4205 61.1401 11.7281C61.2786 12.0393 61.4682 12.3151 61.7052 12.5449C61.9458 12.7783 62.2265 12.9621 62.5401 13.093C63.1598 13.3546 63.9364 13.3617 64.5816 13.093C64.9025 12.9621 65.1868 12.7747 65.4238 12.5449C65.6644 12.3115 65.854 12.0393 65.9889 11.7352C66.1238 11.4311 66.193 11.0952 66.193 10.7416C66.193 10.388 66.1238 10.0485 65.9889 9.74088ZM77.3051 1H80.0941V10.7557C80.0941 11.477 79.9482 12.163 79.6675 12.7995C79.3831 13.4324 78.9967 13.9946 78.5118 14.4649C78.0269 14.9352 77.4473 15.3136 76.7874 15.5858C76.1275 15.8616 75.4166 15.9995 74.6729 15.9995C73.9292 15.9995 73.2219 15.8616 72.5657 15.5858C71.9131 15.31 71.3335 14.9352 70.8522 14.4649C70.3674 13.9946 69.9773 13.436 69.6965 12.7995C69.4122 12.163 69.27 11.477 69.27 10.7557C69.27 10.0344 69.4158 9.34839 69.6965 8.70485C69.9809 8.06838 70.3674 7.50616 70.8522 7.03234C71.3371 6.56206 71.9131 6.18725 72.5657 5.91144C73.2219 5.63564 73.9292 5.49774 74.6729 5.49774C75.2088 5.49774 75.7265 5.56846 76.2041 5.70989C76.5869 5.82304 76.9551 5.97156 77.3015 6.1625V1H77.3051ZM75.6973 8.40429C75.3838 8.27346 75.0375 8.20628 74.6729 8.20628C74.3083 8.20628 73.9729 8.27346 73.6558 8.40429C73.3386 8.53512 73.0579 8.71899 72.8209 8.95237C72.5839 9.18574 72.398 9.45801 72.2595 9.7621C72.1246 10.0662 72.0553 10.4021 72.0553 10.7557C72.0553 11.1093 72.1246 11.4346 72.2595 11.7422C72.3944 12.0534 72.5839 12.3221 72.8173 12.552C73.0506 12.7783 73.3313 12.9621 73.6521 13.093C74.2974 13.3617 75.0739 13.3546 75.6937 13.093C76.0072 12.9621 76.2916 12.7783 76.5322 12.5484C76.7728 12.3221 76.9624 12.0499 77.0973 11.7387C77.2322 11.4311 77.3015 11.0987 77.3015 10.7522C77.3015 10.4056 77.2322 10.0627 77.0973 9.75856C76.9588 9.45447 76.7692 9.1822 76.5322 8.94883C76.2916 8.71546 76.0109 8.53159 75.6973 8.40076V8.40429ZM90.8233 8.70485C91.1186 9.34839 91.2681 10.0273 91.2681 10.7274C91.2681 11.4275 91.1186 12.1064 90.8233 12.7429C90.5317 13.3758 90.1343 13.9381 89.6385 14.419C89.1426 14.8998 88.5593 15.2853 87.9031 15.5681C87.2432 15.8546 86.5396 15.9995 85.8178 15.9995C85.0084 15.9995 84.2574 15.8546 83.5903 15.5717C82.9268 15.2853 82.3507 14.8998 81.8731 14.419C81.3992 13.9381 81.0273 13.3723 80.7685 12.7394C80.5097 12.1064 80.3821 11.4311 80.3821 10.731C80.3821 10.0308 80.5133 9.35547 80.7685 8.71546C81.0273 8.07545 81.3992 7.50616 81.8731 7.02881C82.3471 6.54792 82.9231 6.1625 83.5903 5.87608C84.2574 5.58967 85.0048 5.4447 85.8178 5.4447C86.5433 5.4447 87.2432 5.58967 87.9031 5.87608C88.5593 6.15896 89.1426 6.54792 89.6385 7.02527C90.1343 7.50616 90.5317 8.07191 90.8233 8.70839V8.70485ZM86.7875 13.0753C87.1047 12.9303 87.3927 12.7323 87.6443 12.4919C87.8958 12.2514 88.0963 11.9756 88.2495 11.6644C88.3989 11.3568 88.4755 11.0421 88.4755 10.7274C88.4755 10.4127 88.3989 10.0839 88.2531 9.78332C88.1 9.47569 87.8958 9.19635 87.6479 8.95237C87.3964 8.70839 87.1084 8.51037 86.7912 8.36186C86.4776 8.21689 86.1495 8.14263 85.8178 8.14263C85.4058 8.14263 85.0303 8.21689 84.7058 8.36186C84.3814 8.50684 84.1043 8.70485 83.8783 8.94529C83.6522 9.18574 83.4772 9.46508 83.3533 9.76917C83.2293 10.0733 83.1674 10.395 83.1674 10.7239C83.1674 11.0527 83.2293 11.3639 83.3533 11.6715C83.4736 11.9791 83.6522 12.2585 83.8783 12.4954C84.1043 12.7323 84.3814 12.9268 84.7058 13.0718C85.0267 13.2167 85.4022 13.291 85.8178 13.291C86.1532 13.291 86.4813 13.2167 86.7912 13.0753H86.7875ZM99.4782 11.5725L99.4344 11.6751C99.2376 12.1489 98.9167 12.5378 98.4793 12.8348C98.0454 13.1283 97.5423 13.2804 96.9882 13.2804C96.62 13.2804 96.2736 13.2132 95.9564 13.0824C95.6356 12.948 95.3513 12.7641 95.1143 12.5343C94.8737 12.3009 94.6841 12.0251 94.5492 11.7175C94.4143 11.4099 94.345 11.0704 94.345 10.7168C94.345 10.3632 94.4143 10.0273 94.5492 9.72321C94.6841 9.41911 94.8737 9.14684 95.1143 8.91347C95.3513 8.68363 95.6356 8.49623 95.9564 8.3654C96.2773 8.23457 96.6236 8.16738 96.9882 8.16738C97.5423 8.16738 98.0418 8.31589 98.4793 8.61292C98.8183 8.84275 99.0881 9.12916 99.285 9.46508L99.3688 9.61005L101.629 8.29468L101.757 8.18506L101.673 8.04363C101.673 8.04363 101.655 8.00827 101.644 7.99412C101.327 7.48494 100.926 7.03588 100.455 6.66107C99.9849 6.28626 99.4527 5.98923 98.8657 5.77354C98.2787 5.55785 97.6444 5.44823 96.9845 5.44823C96.2408 5.44823 95.5299 5.58614 94.87 5.86194C94.2102 6.13774 93.6305 6.51609 93.1383 6.98991C92.6498 7.46373 92.2561 8.02948 91.9753 8.66949C91.691 9.3095 91.5488 9.99901 91.5488 10.7203C91.5488 11.4417 91.6946 12.1453 91.9753 12.7853C92.2597 13.4254 92.6498 13.9876 93.1383 14.4614C93.6268 14.9352 94.2102 15.3171 94.87 15.5929C95.5263 15.8687 96.2408 16.0066 96.9845 16.0066C97.6444 16.0066 98.2787 15.897 98.8621 15.6813C99.449 15.4656 99.9849 15.1686 100.452 14.7938C100.922 14.419 101.319 13.9664 101.64 13.4536C101.961 12.9409 102.183 12.3752 102.307 11.7741L102.347 11.5796H99.4709L99.4782 11.5725ZM27.5706 15.8369C32.3683 15.8369 35.5875 13.7789 35.5875 8.48916C35.5875 3.19937 32.3683 1.16265 27.5706 1.16265H22V15.8369H27.5706ZM27.8222 3.68733C30.3851 3.68733 32.2152 5.14414 32.2152 8.49269C32.2152 11.8412 30.3851 13.3157 27.8222 13.3157H25.3759V3.68733H27.8222Z" fill="#0F00B8"/>
<defs>
<clipPath id="clip0_10163_3806">
<rect width="18" height="16" fill="white"/>
</clipPath>
</defs>
</svg>
